<svg xmlns="http://www.w3.org/2000/svg" viewBox="0 0 780 180" width="780" height="180" role="img" aria-label="idiolect">
  <title>idiolect</title>
  <path d="M 87.03125,41.337891 V 56.171875 H 70.351562 V 41.337891 Z m 1.914062,26.591796 v 48.056643 h 16.816408 q 5.05859,0 7.17773,1.98242 2.1875,1.91406 2.1875,5.05859 0,3.07618 -2.1875,5.0586 Q 110.82031,130 105.76172,130 H 58.115234 q -5.058593,0 -7.246093,-1.91406 Q 48.75,126.10352 48.75,122.95898 q 0,-3.07617 2.119141,-4.99023 2.1875,-1.98242 7.246093,-1.98242 H 74.931641 V 81.943359 H 63.652344 q -4.990235,0 -7.177735,-1.914062 -2.1875,-1.982422 -2.1875,-5.126953 0,-3.076172 2.119141,-4.990235 2.1875,-1.982422 7.246094,-1.982422 z M 198.18359,41.337891 v 74.648439 h 2.39258 q 4.99024,0 7.17774,1.98242 2.1875,1.91406 2.1875,5.05859 0,3.07618 -2.1875,5.0586 Q 205.63477,130 200.57617,130 h -16.40625 v -3.41797 q -4.78515,2.80274 -10.04883,4.23828 -5.19531,1.43555 -10.80078,1.43555 -15.79101,0 -25.42969,-9.0918 -9.63867,-9.16015 -9.63867,-22.76367 0,-14.218749 10.11719,-24.267578 10.11719,-10.048828 24.67773,-10.048828 5.46875,0 10.73243,1.708985 5.26367,1.640625 10.39062,4.990234 V 55.351562 h -2.39258 q -5.05859,0 -7.24609,-1.914062 -2.11914,-1.982422 -2.11914,-5.058594 0,-3.144531 2.11914,-5.058594 2.1875,-1.982421 7.24609,-1.982421 z m -14.01367,59.472659 q 0,-8.681644 -6.08398,-14.697269 -6.08399,-6.015625 -14.90235,-6.015625 -8.75,0 -14.83398,6.015625 -6.08399,6.015625 -6.08399,14.492189 0,7.72461 5.46875,12.71484 5.46875,4.92188 15.44922,4.92188 9.91211,0 15.44922,-4.92188 5.53711,-4.99023 5.53711,-12.50976 z M 255.05859,41.337891 V 56.171875 H 238.37891 V 41.337891 Z m 1.91407,26.591796 v 48.056643 h 16.8164 q 5.0586,0 7.17774,1.98242 2.1875,1.91406 2.1875,5.05859 0,3.07618 -2.1875,5.0586 Q 278.84766,130 273.78906,130 h -47.64648 q -5.0586,0 -7.2461,-1.91406 -2.11914,-1.98242 -2.11914,-5.12696 0,-3.07617 2.11914,-4.99023 2.1875,-1.98242 7.2461,-1.98242 h 16.8164 V 81.943359 h -11.27929 q -4.99024,0 -7.17774,-1.914062 -2.1875,-1.982422 -2.1875,-5.126953 0,-3.076172 2.11914,-4.990235 2.1875,-1.982422 7.2461,-1.982422 z m 113.47656,32.197263 q 0,8.06641 -4.51172,15.6543 -4.44336,7.51953 -13.33008,12.03125 -8.81836,4.44336 -18.45703,4.44336 -9.57031,0 -18.32031,-4.375 -8.75,-4.44336 -13.33008,-12.03125 -4.58008,-7.58789 -4.58008,-15.859376 0,-8.408203 4.64844,-16.474609 4.64844,-8.134766 13.33008,-12.783203 8.75,-4.648438 18.25195,-4.648438 9.57031,0 18.38867,4.785157 8.88672,4.716796 13.39844,12.783203 4.51172,7.998047 4.51172,16.474606 z m -14.01367,0.0684 q 0,-6.767576 -4.85352,-12.441404 -6.63086,-7.65625 -17.43164,-7.65625 -9.50195,0 -15.85937,6.083985 -6.35743,6.083984 -6.35743,14.082029 0,6.5625 6.42578,12.30469 6.42579,5.67383 15.79102,5.67383 9.43359,0 15.85938,-5.67383 6.42578,-5.74219 6.42578,-12.37305 z m 68.63281,-58.857419 v 74.648439 h 16.81641 q 5.05859,0 7.17773,1.98242 2.1875,1.91406 2.1875,5.05859 0,3.07618 -2.1875,5.0586 Q 446.94336,130 441.88477,130 h -47.64649 q -5.05859,0 -7.24609,-1.91406 -2.11914,-1.98242 -2.11914,-5.12696 0,-3.07617 2.11914,-4.99023 2.1875,-1.98242 7.24609,-1.98242 h 16.81641 V 55.351562 h -11.2793 q -4.99023,0 -7.17773,-1.914062 -2.1875,-1.982422 -2.1875,-5.126953 0,-3.076172 2.11914,-4.990235 2.1875,-1.982421 7.24609,-1.982421 z m 112.17773,64.736329 h -57.49023 q 2.1875,5.46875 7.72461,8.81836 5.60547,3.34961 15.10742,3.34961 7.79297,0 20.71289,-3.34961 5.33203,-1.36719 7.38281,-1.36719 2.80274,0 4.7168,1.98242 1.91406,1.98242 1.91406,4.99024 0,2.73437 -2.05078,4.64843 -2.73437,2.5293 -13.33008,4.85352 -10.5957,2.25586 -20.37109,2.25586 -16.81641,0 -26.93359,-9.50195 -10.04883,-9.50196 -10.04883,-23.37891 0,-14.765625 10.86914,-23.994141 10.9375,-9.296875 25.15625,-9.296875 8.54492,0 15.6543,3.007813 7.17773,3.007812 10.66406,6.49414 4.92187,5.058594 8.13476,12.509766 2.1875,5.195313 2.1875,12.031247 z M 521.72852,92.060547 q -3.2129,-6.015625 -8.40821,-8.955078 -5.19531,-3.007813 -12.37304,-3.007813 -7.10938,0 -12.30469,3.007813 -5.19531,2.939453 -8.47656,8.955078 z m 86.20117,-21.601563 q 2.52929,-2.392578 5.19531,-2.392578 3.00781,0 4.92187,2.1875 1.98243,2.119141 1.98243,7.109375 v 9.023438 q 0,5.058593 -1.98243,7.177734 -1.91406,2.119141 -5.05859,2.119141 -2.87109,0 -4.85351,-1.640625 -1.43555,-1.230469 -2.25586,-4.990235 -0.82032,-3.828125 -3.96485,-5.673828 -5.53711,-3.28125 -14.15039,-3.28125 -9.91211,0 -15.92773,5.810547 -5.94727,5.810547 -5.94727,14.697267 0,8.20312 5.74219,12.98828 5.74219,4.7168 19.07226,4.7168 8.75,0 14.28711,-1.77735 3.28125,-1.09375 6.22071,-3.6914 2.93945,-2.66602 5.33203,-2.66602 2.87109,0 4.92187,2.11914 2.11914,2.11914 2.11914,4.99024 0,4.64843 -6.35742,8.81836 -9.43359,6.2207 -27.61719,6.2207 -16.33789,0 -25.42968,-6.76758 -12.30469,-9.0918 -12.30469,-24.88281 0,-14.970705 9.98047,-24.746096 9.98047,-9.84375 26.04492,-9.84375 5.81055,0 10.80078,1.09375 4.99024,1.09375 9.22852,3.28125 z m 58.7207,11.484375 v 28.095701 q 0,4.51172 1.8457,5.94727 2.8711,2.25586 10.25391,2.25586 10.73242,0 19.82422,-4.58008 3.48633,-1.77734 5.46875,-1.77734 2.73437,0 4.7168,2.05078 2.05078,2.05078 2.05078,4.99023 0,2.73438 -2.1875,4.7168 -3.34961,3.21289 -13.26172,5.94726 -9.84375,2.66602 -16.61133,2.66602 -13.05664,0 -19.61914,-5.60547 -6.49414,-5.67383 -6.49414,-13.87695 V 81.943359 h -5.0586 q -5.05859,0 -7.24609,-1.914062 -2.11914,-1.982422 -2.11914,-5.126953 0,-3.076172 2.11914,-4.990235 2.1875,-1.982422 7.24609,-1.982422 h 5.0586 V 55.283203 q 0,-5.058594 1.91406,-7.177734 1.98242,-2.1875 5.12695,-2.1875 3.07618,0 4.99024,2.1875 1.98242,2.11914 1.98242,7.177734 v 12.646484 h 25.9082 q 5.0586,0 7.17774,1.982422 2.1875,1.914063 2.1875,5.058594 0,3.076172 -2.1875,5.058594 -2.11914,1.914062 -7.17774,1.914062 z" fill="#eae7df"/>
</svg>
